<svg id="Layer_1" data-name="Layer 1" xmlns="http://www.w3.org/2000/svg" viewBox="0 0 224.85 224.85"><defs><style>.cls-1{fill:#ff4f4f;}</style></defs><path class="cls-1" d="M175.31,72.82l-65.44,29.9a14.55,14.55,0,0,0-7.15,7.15l-29.9,65.44a9,9,0,0,0,11.87,11.87l65.44-29.9a14.55,14.55,0,0,0,7.15-7.15l29.9-65.44a9,9,0,0,0-11.87-11.87Zm-35.07,67.42a14.48,14.48,0,1,1,0-20.48A14.49,14.49,0,0,1,140.24,140.24ZM130,17.58A112.42,112.42,0,1,0,242.42,130,112.42,112.42,0,0,0,130,17.58Zm0,203.09A90.67,90.67,0,1,1,220.67,130,90.78,90.78,0,0,1,130,220.67Z" transform="translate(-17.58 -17.58)"/></svg>