<?xml version="1.0" standalone="no"?>
<!DOCTYPE svg PUBLIC "-//W3C//DTD SVG 20010904//EN"
 "http://www.w3.org/TR/2001/REC-SVG-20010904/DTD/svg10.dtd">
<svg version="1.0" xmlns="http://www.w3.org/2000/svg"
 width="700.000000pt" height="700.000000pt" viewBox="0 0 700.000000 700.000000"
 preserveAspectRatio="xMidYMid meet">
<metadata>
Created by potrace 1.14, written by Peter Selinger 2001-2017
</metadata>
<g transform="translate(0.000000,700.000000) scale(0.100000,-0.100000)"
fill="#000000" stroke="none">
<path d="M3278 6995 c-1 -1 -41 -6 -87 -9 -124 -10 -164 -16 -351 -50 -90 -16
-200 -42 -300 -71 -131 -38 -370 -122 -385 -136 -5 -5 -14 -9 -21 -9 -21 0
-263 -120 -389 -193 -103 -60 -265 -165 -315 -204 -8 -6 -51 -40 -95 -74 -650
-506 -1121 -1279 -1270 -2084 -10 -49 -18 -97 -20 -105 -2 -9 -6 -43 -10 -75
-4 -33 -9 -69 -11 -79 -25 -139 -25 -673 0 -814 2 -9 7 -44 11 -77 4 -32 9
-68 11 -80 2 -11 7 -36 10 -55 15 -94 61 -280 101 -410 325 -1054 1122 -1888
2158 -2261 231 -83 462 -141 705 -175 19 -3 49 -7 65 -9 190 -27 655 -26 845
1 673 98 1226 328 1724 718 163 127 352 305 469 441 33 39 63 72 66 75 12 10
137 176 193 256 155 224 303 509 399 768 30 81 105 318 113 359 3 12 16 78 31
146 52 249 70 422 70 701 0 183 -11 415 -20 430 -2 3 -6 32 -10 64 -3 33 -8
62 -9 65 -2 3 -7 29 -10 56 -21 159 -106 461 -192 678 -211 539 -566 1032
-999 1392 -33 28 -62 53 -65 56 -14 16 -231 172 -299 214 -156 97 -365 209
-501 268 -47 20 -236 92 -280 106 -19 6 -64 21 -100 32 -36 12 -72 22 -80 24
-8 2 -42 10 -75 19 -71 18 -196 45 -245 52 -19 3 -60 9 -91 15 -31 5 -81 12
-110 15 -30 3 -67 8 -84 10 -34 6 -542 14 -547 9z m410 -680 c62 -3 120 -8
130 -9 9 -2 42 -7 72 -11 30 -3 89 -13 130 -22 41 -8 86 -17 100 -19 224 -43
584 -186 818 -325 73 -44 220 -142 257 -171 6 -4 30 -24 55 -44 315 -250 582
-575 762 -929 121 -236 229 -555 263 -775 4 -25 9 -54 11 -64 38 -202 46 -531
19 -761 -15 -122 -37 -240 -70 -370 -40 -153 -40 -153 -47 -175 -3 -8 -16 -44
-28 -80 -187 -545 -580 -1054 -1075 -1392 -60 -41 -135 -89 -165 -107 -63 -36
-335 -171 -345 -171 -4 0 -21 -7 -38 -15 -59 -27 -271 -93 -382 -119 -402 -94
-733 -102 -1175 -30 -95 15 -300 71 -425 116 -839 300 -1485 972 -1749 1818
-38 121 -80 300 -92 385 -3 28 -8 59 -10 70 -2 11 -6 45 -9 75 -3 30 -8 80
-11 110 -8 75 -7 319 1 405 3 39 8 89 10 113 2 23 9 68 14 100 6 31 13 73 16
92 11 87 59 269 105 403 240 703 756 1291 1420 1617 75 37 264 118 290 125 3
0 41 13 85 28 84 28 288 80 365 93 25 4 47 8 50 9 3 1 32 5 65 9 32 4 68 10
80 12 11 2 74 7 140 10 66 3 121 7 122 8 3 2 128 -2 241 -9z"/>
<path d="M4970 5295 c-30 -6 -134 -48 -230 -92 -96 -44 -206 -95 -245 -113
-38 -18 -137 -63 -220 -100 -82 -37 -181 -82 -220 -100 -38 -18 -146 -67 -240
-110 -93 -43 -199 -91 -235 -108 -36 -16 -117 -53 -180 -82 -63 -29 -152 -70
-197 -91 -46 -21 -140 -64 -210 -95 -153 -68 -220 -110 -272 -172 -49 -57 -59
-76 -286 -575 -69 -153 -141 -311 -159 -350 -65 -138 -106 -229 -106 -232 0
-1 -22 -51 -50 -109 -27 -58 -50 -108 -50 -110 0 -2 -19 -44 -41 -93 -162
-345 -321 -701 -327 -731 -12 -57 -2 -134 25 -187 26 -49 99 -112 153 -130 92
-30 151 -23 280 37 47 22 123 57 170 78 47 21 134 61 193 89 60 28 110 51 112
51 2 0 36 15 77 34 120 56 208 96 308 141 52 23 131 59 175 80 44 20 130 59
190 87 61 28 135 61 165 75 30 14 73 33 95 43 22 10 74 33 115 53 41 19 127
58 190 87 63 29 144 66 180 83 84 40 174 130 216 218 35 72 64 135 214 464 13
28 36 79 53 115 53 116 397 868 502 1100 56 124 117 256 135 295 18 38 38 90
45 115 38 147 -69 315 -214 336 -20 3 -40 6 -46 8 -5 2 -35 -2 -65 -9z m-1377
-1354 c121 -28 238 -112 296 -216 178 -315 -65 -699 -424 -672 -188 14 -351
150 -400 334 -18 65 -17 161 0 228 60 227 301 376 528 326z"/>
</g>
</svg>
